<?xml version="1.0" encoding="UTF-8"?>
<svg id="Layer_2" data-name="Layer 2" xmlns="http://www.w3.org/2000/svg" viewBox="0 0 285.31 285.31">
  <defs>
    <style>
      .cls-1 {
        fill: #dfc2a0;
      }

      .cls-2 {
        fill: #f9f6e7;
      }

      .cls-3 {
        fill: #a9875d;
      }
    </style>
  </defs>
  <g id="Layer_3" data-name="Layer 3">
    <g>
      <g>
        <path class="cls-3" d="m142.66.25c78.65,0,142.4,63.76,142.4,142.4s-63.75,142.41-142.4,142.41S.25,221.3.25,142.65,64.01.25,142.66.25Zm120.57,142.4c0-66.58-53.98-120.57-120.57-120.57S22.09,76.07,22.09,142.65s53.98,120.57,120.57,120.57,120.57-53.98,120.57-120.57Z"/>
        <circle class="cls-1" cx="142.66" cy="142.65" r="120.57"/>
      </g>
      <g>
        <path class="cls-2" d="m30.03,134.63v-.59c0-.2.04-.36.13-.5.58-.1,1.28-.18,2.1-.24.82-.06,1.43-.12,1.81-.18.28-.06.59-.1.93-.12.45-.06.87-.15,1.25-.27.14-.47.4-1.83.79-4.07l1.18-6.67c.18-1.49.95-5.99,2.33-13.48.33-1.79.62-3.45.85-4.97.24-1.52.46-2.74.68-3.64.02-.31.04-.55.06-.71.1-.63.15-.99.15-1.09,0-.12-.05-.32-.15-.62-.43-.16-.93-.25-1.5-.27l-1.33-.09h-.65c-.29,0-.92-.07-1.89-.21,0-.43.06-.88.18-1.33.16.02.33.03.53.03.75.04,1.41.09,2,.15,1.08,0,1.94.02,2.59.06l2.36-.06,1.53.09c2.26,0,4.14-.07,5.65-.21.22-.02.42-.03.62-.03.1,0,.23.01.41.03.08.24.12.41.12.53,0,.18-.08.42-.24.74l-3.06.21-2.44.32c-.14.04-.27.11-.41.21-.14.43-.25.86-.32,1.27l-1.24,7.11c-.2,1.22-.49,2.81-.88,4.78-.16.89-.29,1.87-.38,2.95,2.47.14,4.63.21,6.48.21,1.16,0,3.2-.1,6.13-.29l3.65.03.82-.03c.59,0,1.47.04,2.64.12,1.17.08,2.06.12,2.67.12.29,0,.69-.03,1.18-.09l.97-4.99,1.27-6.73c.29-1.55.46-2.53.5-2.92.04-.39.06-.82.06-1.27v-.56c-.24-.26-.84-.39-1.8-.41-.14,0-.34,0-.59-.03-.98-.12-2.01-.19-3.07-.21.04-.43.12-.8.24-1.09l6.4.12,8.5-.12c0,.33-.08.69-.24,1.06-.29.08-.72.14-1.27.18l-2.33.24c-.59.02-1.07.11-1.44.27l-.21.41c-.08.33-.16.64-.24.91-.16.47-.28,1.01-.35,1.62l-.35,2.63-2.21,12.04c-.45,2.28-1.1,5.79-1.94,10.53l-1.21,6.34c-.04.24-.06.45-.06.65.22.25.44.39.68.43.14.02.31.06.53.12.22.06.53.1.94.12.41.04,1.66.21,3.74.5l-.06.27c-.04.26-.12.46-.24.62l-.65-.09-7.3-.15c-2.85,0-4.68.05-5.51.15-.41.06-1.33.13-2.74.21,0-.41.04-.76.12-1.03l.29-.12,3.71-.38c.79-.06,1.46-.16,2.03-.31l.12-.34c.2-.63.42-1.62.68-2.97.02-.16.62-3.06,1.8-8.72.45-2.08.75-3.83.88-5.24-.9-.16-2.11-.24-3.62-.24l-2.77.03-.35-.03-.5-.03-.82.03h-1.62l-3.71.12h-1.89l-2.39.09h-1.18l-1.41.09-1.91-.06-1.35.06c-.12.61-.2,1.21-.24,1.8l-.74,4.28c-.16.94-.38,2.06-.68,3.36-.12,1-.33,2.09-.65,3.27-.14.47-.22.92-.24,1.36-.06.55-.15,1.08-.27,1.59-.08.33-.12.6-.12.8,0,.16.04.32.12.5.22.14.39.23.52.27.13.04.65.1,1.58.18l3.6.56c0,.31-.06.66-.18,1.03l-2.59.03-6.76-.38c-1.18,0-2.79.1-4.84.29-.37.04-1.02.06-1.98.06Z"/>
        <path class="cls-2" d="m97.53,117.46c0,4.56-1.38,8.61-4.15,12.15-2.76,3.54-5.63,5.31-8.6,5.31-1.59,0-2.88-.6-3.86-1.78-.98-1.19-1.48-3.05-1.48-5.59,0-1.71.38-3.68,1.15-5.92.77-2.23,1.76-4.09,2.98-5.56.28-.33.59-.74.94-1.21,1.04-1.36,2.28-2.5,3.72-3.42,1.44-.92,2.9-1.39,4.4-1.39,1.38,0,2.54.58,3.48,1.73.94,1.15,1.42,3.04,1.42,5.68Zm-15.34,13.42c0,.9.21,1.57.63,2.01.42.43,1.11.65,2.05.65s1.86-.45,2.8-1.36c1.69-1.65,3.38-4.49,5.07-8.53,1.69-4.03,2.54-7.21,2.54-9.53,0-.83-.21-1.48-.62-1.96-.41-.48-.89-.72-1.42-.72-1.16,0-2.37.68-3.63,2.04-2.14,2.28-3.99,5.43-5.55,9.44-1.26,3.26-1.89,5.92-1.89,7.97Z"/>
        <path class="cls-2" d="m108.44,112.77h-1.8l-.83-.03-1.92.06h-.38c.04-.43.21-.93.51-1.5,2.87-.08,4.57-.15,5.11-.21.38-.94.71-1.7.98-2.27.58-1.28,1.18-2.79,1.8-4.54.19-.57.41-1.09.64-1.56.43-.06.93-.09,1.5-.09.47,0,.92.05,1.36.15l.06.47c0,.37-.87,2.54-2.6,6.49-.19.45-.36.91-.49,1.39.56.1.89.15.99.15h.61l.99.03,2.8-.06c0,.65-.12,1.18-.35,1.59-.78.08-1.8.12-3.06.12-.62,0-1.02.01-1.19.03-.99.1-1.56.2-1.72.3l-4.8,11.52c-.54,1.11-1.45,3.22-2.75,6.33,0,.12.06.25.18.41l.38.06c.53,0,1.19-.33,1.98-1,1.71-1.48,3.32-3.2,4.84-5.16.33.18.61.38.86.62-1.94,2.38-3.3,3.95-4.09,4.71-.79.76-1.79,1.54-2.99,2.36-1.21.82-1.94,1.27-2.19,1.37-.44.18-.89.27-1.35.27s-.84-.1-1.07-.31-.35-.51-.35-.9c0-.57.47-1.9,1.41-3.98l1.24-2.74,4.35-10.47c.56-1.36,1.01-2.55,1.35-3.57Z"/>
        <path class="cls-2" d="m128.47,133.71c.33-.1.66-.16.97-.19.31-.03.6-.07.85-.13.24-.02.42-.04.56-.06,1.39-.1,2.27-.25,2.64-.45.36-.2.64-.51.84-.95.51-1.33.83-2.37.97-3.12.06-.43.11-.73.15-.88.04-.24.08-.54.12-.91.16-.85.25-1.37.27-1.56.06-.53.2-1.27.41-2.23.22-.95.4-2.04.56-3.26.08-.69.14-1.12.18-1.3.43-2.1.74-3.73.91-4.87.77-4.78,1.33-7.91,1.68-9.38.12-1.12.34-2.62.68-4.48l.06-1.46c0-.33-.12-.6-.35-.82-.45-.41-1.17-.68-2.16-.82-.99-.14-1.77-.2-2.34-.2l-.35.03-.5-.21c-.02-.24-.03-.41-.03-.53l.03-.32c1.2-.04,1.87-.06,2.01-.06,2.68,0,4.49.02,5.41.06.65.02,1.17.03,1.56.03.43,0,1.13-.02,2.09-.05.63-.03,1.1-.04,1.42-.04,2.95,0,4.99.14,6.13.41,1.55.35,2.76.91,3.62,1.68,1.28,1.14,2.15,2.19,2.61,3.17.46.97.69,2.15.69,3.55,0,.75-.15,1.49-.46,2.24-.3.75-.79,1.48-1.46,2.21-.22.24-.99.85-2.33,1.86-.29.18-.67.39-1.12.65l-2.62,1.27c1.42.3,2.62.75,3.6,1.36.29.18.59.32.89.44.27.24.54.45.79.64s.49.37.71.55c.53.63.9,1.18,1.12,1.65l.47.92c.14.28.3.91.49,1.89.19.98.28,1.86.28,2.63,0,.63-.02,1.06-.06,1.3l-.62,1.92c-.87,1.6-1.55,2.76-2.06,3.5-.51.74-1.43,1.64-2.74,2.7-.71.57-1.72,1.11-3.04,1.62-.57.22-1.78.48-3.62.8l-.41.03c-.12,0-.7.04-1.74.12-.59.06-1.07.09-1.45.09-.79,0-2.44-.08-4.95-.24-.92-.04-1.65-.13-2.18-.27l-2.51-.09-.35.03-1.24.18-.94-.06-1.74.21c-.77.16-1.42.24-1.95.24-.16,0-.33-.01-.53-.03l.09-.97Zm13.59-19.26c-.1,1.04-.45,2.87-1.04,5.47-.18.73-.42,2.21-.72,4.43-.79,3.47-1.19,5.69-1.19,6.68s.23,1.59.69,1.94,1.85.52,4.15.52c1.87,0,3.5-.25,4.9-.74.26-.14.5-.26.74-.35.9-.39,1.63-.85,2.18-1.36,1.1-1.04,1.89-2.04,2.36-2.98.79-1.65,1.22-2.65,1.3-2.98.33-1.58.5-2.93.5-4.08,0-.49-.07-1.04-.21-1.64-.14-.6-.35-1.26-.65-1.97-.51-.61-.9-1.03-1.18-1.26-.27-.23-.88-.65-1.83-1.29-.43-.14-.83-.29-1.21-.44-.26-.06-.44-.1-.56-.12-.59-.14-.98-.22-1.18-.24l-1.83-.06-1.38.06h-1.18l-2.59.21-.09.21Zm.95-1.65c2.25-.04,3.74-.14,4.47-.29,1.53-.31,2.79-.76,3.77-1.34.99-.58,1.92-1.37,2.78-2.37.51-.59.95-1.42,1.32-2.49s.56-2.01.56-2.81-.12-1.59-.35-2.3c-.16-.47-.5-1.11-1.03-1.91-.73-.8-1.25-1.3-1.56-1.47-.63-.33-1.74-.68-3.33-1.03l-.53.03-2.33-.06c-.65,0-1.17.17-1.56.5-.26.26-.43.76-.53,1.5-.21,2.12-.51,4.01-.89,5.68l-.89,5.01-.12,1.53c-.04.45-.09.85-.15,1.21l-.03.24c0,.1.14.23.41.38Z"/>
        <path class="cls-2" d="m168.8,123.59c-.65,1.78-.97,3.59-.97,5.41,0,1.33.31,2.4.94,3.21.41.55.97.82,1.68.82.43,0,.82-.09,1.15-.26.73-.37,1.35-.81,1.87-1.32.52-.51,1.07-1.17,1.64-2s1.03-1.74,1.39-2.76h.41c.24,0,.5.02.8.06-.59,2.2-2.05,4.35-4.37,6.47-1.46,1.31-2.96,1.97-4.51,1.97-1.04,0-1.93-.47-2.66-1.42-.96-1.24-1.45-2.95-1.45-5.13,0-.94.14-2.07.43-3.39.29-1.32.61-2.42.99-3.3.59-1.38,1.25-2.67,1.98-3.89l2.27-3.3c1.47-1.57,2.3-2.44,2.48-2.6.69-.59,1.38-1.04,2.08-1.34.7-.3,1.42-.46,2.17-.46.96,0,1.81.4,2.54,1.21.73.81,1.09,1.82,1.09,3.05,0,1.08-.28,2.15-.84,3.21s-1.17,1.83-1.81,2.32l-2.45,1.6c-.28.14-1.01.39-2.21.75-1.2.36-2.74.73-4.63,1.11Zm.5-1.5c.63.02,1.61-.23,2.95-.74.73-.28,1.69-.82,2.89-1.62.47-.31,1.01-.85,1.62-1.61.61-.76,1.07-1.54,1.39-2.36.31-.82.47-1.66.47-2.52,0-.57-.17-1.04-.5-1.42-.33-.37-.71-.56-1.12-.56-.53,0-1.16.31-1.89.91-1.22,1.06-2.5,2.84-3.83,5.34-1,1.91-1.66,3.43-1.98,4.57Z"/>
        <path class="cls-2" d="m202.08,112.86c.2-.33.32-.6.38-.8.24-.59.47-.97.71-1.15.55-.06.96-.09,1.21-.09.33,0,.66.07.98.21l.09.36c0,.12-.05.29-.15.53-.06.12-.19.49-.38,1.12l-.24.59-1.95,5.28c-.83,2.38-1.55,4.28-2.17,5.69-.62,1.42-1.16,2.86-1.61,4.32-.45,1.46-.87,2.51-1.24,3.14l-.12.28c0,.11.1.27.31.45.83-.49,1.53-1.02,2.1-1.59,1.47-1.48,2.35-2.39,2.62-2.74.2-.26.4-.49.58-.71.22.2.42.4.61.62-.53.77-1.41,1.81-2.66,3.13-1.24,1.32-2.37,2.25-3.36,2.8-.77.41-1.5.62-2.18.62-.43,0-.76-.1-.97-.29-.22-.19-.33-.44-.33-.75,0-.27.1-.78.29-1.53.49-1.3.84-2.15,1.03-2.57s.46-1.05.8-1.92c.2-.53.6-1.46,1.21-2.77-.38.37-.86.92-1.43,1.65-1.64,2.01-3.52,3.9-5.64,5.69-.49.41-1.66,1.07-3.52,1.98-.69.26-1.5.42-2.43.5-.79-.02-1.31-.1-1.58-.24-.49-.26-.88-.66-1.18-1.21-.22-.41-.33-1.05-.33-1.92,0-1.26.28-2.65.84-4.19.96-2.62,1.94-4.55,2.92-5.81,1.69-2.18,3.36-3.91,5.02-5.19,1.66-1.28,3.18-2.21,4.57-2.8,1.83-.79,3.42-1.18,4.76-1.18.44,0,.86.04,1.27.12.4.08.78.2,1.15.35Zm-14.4,19.35c.49-.12.91-.29,1.28-.5.22-.12,1.01-.66,2.37-1.62,2.47-2.42,3.88-3.81,4.2-4.16.71-.77,1.51-1.82,2.4-3.16.24-.33.76-1.26,1.55-2.77l.77-2.04c.28-1.2.41-1.89.41-2.06,0-.55-.23-1.07-.69-1.56-.3-.29-.8-.44-1.49-.44-.79,0-1.47.13-2.04.38-1.28.59-2.44,1.34-3.49,2.24-1.42,1.24-2.79,2.83-4.1,4.76-1.32,1.94-2.25,3.56-2.79,4.85-.75,1.79-1.12,3.13-1.12,4.01,0,.73.15,1.27.46,1.62.3.35.69.53,1.16.53.16,0,.54-.03,1.13-.09Z"/>
        <path class="cls-2" d="m214.5,113.77c-.04-.16-.09-.27-.16-.32-.07-.06-.15-.09-.25-.09-1.02,0-2.62,1.61-4.78,4.84-.22.02-.37.03-.47.03-.12,0-.32,0-.59-.03.41-.83,1.09-1.87,2.02-3.13.93-1.26,1.93-2.31,2.98-3.14,1.05-.84,2.05-1.46,2.99-1.87.31-.14.6-.21.86-.21.1,0,.25.01.44.03.35.35.53.72.53,1.09,0,.24-.03.47-.07.71-.05.24-.15.6-.31,1.09-.59,1.69-1.02,2.88-1.3,3.57l-1.68,4.37c-.39,1-.78,2.07-1.15,3.19.16-.2.29-.38.41-.56,1.83-2.67,3.8-5.24,5.92-7.69,2.12-2.45,3.86-4.09,5.24-4.91.98-.61,1.92-.91,2.8-.91.67,0,1.19.18,1.56.55.37.36.56.83.56,1.4,0,.35-.04.7-.12,1.03-.14.75-.44,1.79-.92,3.13-.47,1.34-1.71,4.24-3.72,8.7l-2.95,6.81-.12.38c0,.12.07.29.21.53,1.1-.24,2.75-1.99,4.96-5.25l1.21.03c-.61,1.1-1.61,2.52-3.01,4.25-1.08,1.32-2.24,2.34-3.48,3.07-.69.41-1.43.62-2.21.62-.47,0-.83-.1-1.06-.29-.24-.2-.35-.41-.35-.65,0-1.04.5-2.66,1.5-4.84l4.28-9.35,1.65-3.92c.37-.87.6-1.46.68-1.8.08-.33.12-.67.12-1,0-.26-.07-.46-.21-.6s-.31-.22-.53-.22c-.32,0-.68.13-1.09.38-1.46.87-3.06,2.35-4.81,4.45-2.52,3.03-4.19,5.2-5.02,6.52-2.06,3.27-3.86,6.6-5.39,10-.24.55-.52.95-.86,1.21-.41.06-.73.09-.94.09-.26,0-.65-.05-1.18-.15-.08-.16-.12-.29-.12-.38,0-.16.1-.51.3-1.06.43-1.28,1.49-3.97,3.19-8.08l.68-1.59,3.78-10Z"/>
        <path class="cls-2" d="m233.02,129.17c.98,0,1.79.76,2.42,2.27.31.75.62,1.24.92,1.48.28.26.64.38,1.09.38.85,0,1.65-.39,2.42-1.18.59-.59.88-1.5.88-2.72,0-.94-.33-2.36-1-4.25-.94-2.74-1.42-4.88-1.42-6.44,0-2.26.61-4.27,1.83-6.03,1.22-1.75,3.15-2.63,5.78-2.63,1.12,0,2.02.31,2.68.91.67.61,1,1.35,1,2.21,0,.59-.16,1.07-.49,1.43-.32.36-.69.55-1.11.55-.87,0-1.64-.42-2.33-1.25s-1.15-1.32-1.39-1.46c-.24-.12-.6-.18-1.09-.18-.55,0-1.04.24-1.46.71-.42.47-.63,1.04-.63,1.71,0,1.6.47,3.82,1.42,6.66.95,2.84,1.42,5.05,1.41,6.63,0,1-.31,2.02-.93,3.06-.62,1.03-1.58,1.91-2.89,2.63-1.31.72-2.65,1.08-4.03,1.08-1.65,0-2.89-.35-3.7-1.06-.82-.71-1.22-1.55-1.22-2.54,0-.59.17-1.07.5-1.43.33-.36.78-.55,1.33-.55Z"/>
        <path class="cls-2" d="m96.34,169.52l.03-1.12.65-.06c.9-.08,1.59-.12,2.06-.12l.71.06h1l4.5.09,1.62.03c.22.02.63.06,1.24.12l.03.21c0,.16-.03.37-.09.65-.99.28-1.77.42-2.37.44-.57.18-.94.38-1.09.62-.28.41-.43,1.03-.47,1.86l-.15,3.39-.15,3.63.03.56c0,.79-.03,2.19-.09,4.22v3.01l-.2,3.39v2.04l-.2,5.96-.23,3.25c-.02.22-.03.52-.03.91.69-.63,1.17-1.12,1.44-1.47.61-.83,1.23-1.54,1.85-2.15.29-.27.72-.77,1.27-1.47.94-1.18,2.55-3,4.82-5.46.39-.43.74-.84,1.03-1.21l.03-1.15.94-11.27c.2-1.85.29-3.95.29-6.31,0-.73-.15-1.24-.44-1.53-.47-.47-1.29-.82-2.45-1.03-.39-.08-.73-.16-1-.24l-.03-.94c.26,0,1.01-.03,2.27-.09h1.59l.65-.03,1.86.06,1.98-.09,3.95.12.24-.09c.12,0,.27.05.47.15v.79c-.31.1-.77.2-1.35.3-1.57.28-2.59.59-3.05.94-.46.35-.69,1.24-.69,2.66-.02.91-.17,3.54-.44,7.91-.16,2.38-.23,3.76-.23,4.13v.77c.69-.85,1.33-1.58,1.92-2.21.59-.63,2.5-2.91,5.75-6.84.41-.47.88-1.1,1.41-1.89,2.05-2.36,3.07-3.72,3.07-4.07,0-.14-.06-.26-.18-.35-.28-.25-.69-.47-1.24-.65l-.71-.24c-.26-.08-.52-.14-.8-.19s-.55-.13-.83-.25l-.03-.32c0-.16.03-.37.09-.65l.3.03,1.8-.09,9.05.06c0,.45-.06.83-.18,1.12-.28.06-.47.1-.59.12-.93.14-1.8.41-2.6.83-.81.41-1.59.96-2.34,1.65-1.6,1.48-2.95,2.85-4.05,4.13l-7.63,9.23c-.65.75-1.16,1.32-1.53,1.71-.39.51-.76.92-1.09,1.24l-.18,4.15c0,.31-.02.76-.06,1.33l-.47,6.81c-.08.92-.12,1.63-.12,2.12.27-.27.45-.46.53-.56l4.72-5.4c.29-.35.92-1.04,1.89-2.06.22-.22.9-.99,2.06-2.33.49-.55,1.03-1.12,1.62-1.71.35-.35.67-.69.94-1l9.94-11.41,3.8-4.33c1.04-1.24,1.69-2.08,1.95-2.54.16-.25.28-.62.35-1.09-.28-.16-.72-.28-1.33-.38-.43-.12-.84-.21-1.21-.27-.22-.02-.67-.11-1.36-.27v-.92l2.33-.18h1.18l1.12-.03c2.46,0,4.15,0,5.07.03l-.09,1.15c-1.55.57-2.63,1.1-3.24,1.59-.93.71-3.25,3.19-6.96,7.43l-10.27,11.54-1.09,1.3-1.18,1.24-6.64,7.46-7.08,7.76h-.32c-.26,0-.59-.02-1-.06v-.68l-.03-.47c0-.1.02-.27.06-.5.04-.37.14-2.17.29-5.4l.32-5.1-.03-1.27.06-1.06c-.22.18-.69.68-1.41,1.51-.08.08-.38.39-.91.93-.53.54-1.11,1.23-1.74,2.05-1.06,1.16-3.72,4.22-7.98,9.17-.16.18-.46.48-.91.92l-1.5.06-.03-.38.27-11.03.29-9.74.35-10.47c.1-1.16.15-1.85.15-2.06v-1.3l.03-1.12c-.06-.49-.2-.96-.41-1.42-.1-.22-.26-.38-.48-.49-.22-.11-.63-.16-1.21-.16s-1.09-.04-1.46-.12Z"/>
        <path class="cls-2" d="m147.47,196.1c-.65,1.78-.97,3.59-.97,5.41,0,1.33.31,2.4.94,3.21.41.55.97.82,1.68.82.43,0,.82-.09,1.15-.26.73-.37,1.35-.81,1.87-1.32.52-.51,1.07-1.17,1.64-2,.57-.82,1.03-1.74,1.39-2.76h.41c.24,0,.5.02.8.06-.59,2.2-2.05,4.35-4.37,6.47-1.46,1.31-2.96,1.97-4.51,1.97-1.04,0-1.93-.47-2.66-1.42-.96-1.24-1.45-2.95-1.45-5.13,0-.94.14-2.07.43-3.39.28-1.32.61-2.42.99-3.3.59-1.38,1.25-2.67,1.98-3.89l2.27-3.3c1.47-1.57,2.3-2.44,2.48-2.6.69-.59,1.38-1.04,2.08-1.34s1.42-.46,2.17-.46c.96,0,1.81.4,2.54,1.21.73.81,1.09,1.82,1.09,3.05,0,1.08-.28,2.15-.84,3.21s-1.17,1.83-1.81,2.32l-2.45,1.6c-.28.14-1.01.39-2.21.75-1.2.37-2.74.73-4.63,1.11Zm.5-1.5c.63.02,1.61-.23,2.95-.74.73-.28,1.69-.82,2.89-1.62.47-.31,1.01-.85,1.62-1.61s1.07-1.54,1.39-2.36c.31-.82.47-1.66.47-2.52,0-.57-.17-1.04-.5-1.42-.33-.37-.71-.56-1.12-.56-.53,0-1.16.31-1.89.92-1.22,1.06-2.5,2.84-3.83,5.34-1,1.91-1.66,3.43-1.98,4.57Z"/>
        <path class="cls-2" d="m170.75,169.52c-.54-.35-1.32-.53-2.35-.53h-.48l.06-.86c.55-.14,1.64-.23,3.27-.27.34,0,1.6-.07,3.78-.21-.06.29-.67,2.19-1.83,5.69l-2.22,6.93c-.2.75-.7,2.31-1.5,4.69l-3.26,10.5,4.21-5.63c2.46-2.91,3.9-4.56,4.32-4.96,1.04-.94,1.97-1.59,2.79-1.93.81-.34,1.53-.52,2.15-.52.72,0,1.36.34,1.94,1.03.73.91,1.1,1.97,1.1,3.19,0,2.56-.66,5.22-1.97,7.98-1.31,2.76-3.13,5.29-5.44,7.57-1.5,1.47-3.7,2.89-6.6,4.25-1.65.77-2.99,1.15-4,1.15-1.15,0-2.05-.3-2.7-.91-.65-.61-.98-1.34-.98-2.18,0-1.08.21-2.34.63-3.77l1.56-5.48,5.75-17.42c.68-2.2,1.32-4.09,1.92-5.66.24-.63.35-1.17.35-1.62,0-.29-.17-.64-.5-1.03Zm-4.8,36.85c.62,0,1.27-.21,1.95-.62,1.33-.77,2.84-2.13,4.52-4.1s2.82-3.46,3.44-4.48c1.28-2.14,2.32-4.28,3.14-6.4.62-1.57.93-2.95.93-4.13,0-.55-.18-1-.54-1.34-.36-.34-.82-.52-1.38-.52s-1.13.19-1.77.56c-1.24.75-2.7,2.14-4.39,4.18-2.67,3.22-4.4,5.49-5.19,6.8-.78,1.32-1.43,2.82-1.93,4.52-.5,1.7-.75,2.83-.75,3.4,0,.6.18,1.11.55,1.52.37.41.84.62,1.42.62Z"/>
      </g>
      <path class="cls-2" d="m194.09,113.28h6.55v-1.66c.5-.84,1.33-2.02,2.64-3.13,1.59-1.35,3.19-2.02,4.21-2.35-1.9-2.54-1.89-4.02-1.57-4.89.47-1.28,1.58-1.15,3.89-3.24,1.01-.92,2.51-2.31,3.35-4.49.32-.83.2-.88.68-3.23.38-1.86.76-3.72,1.47-5.77.43-1.24,1.08-3.16,2.45-5.38,1.29-2.1,1.84-2.24,2.54-4.01.55-1.4.4-1.8,1.17-3.62.67-1.58,1.22-2.31.98-2.54-.25-.25-1.1.32-2.84,1.27,0,0-2.04,1.12-4.5,2.25-2.2,1.01-3.32,1.51-4.7,1.66-.82.09-.9,0-3.49-.04l-2.5.14c.7-.15.85-.18.85-.17,0,0-.84.14-1.73.44-.11.04-.32.1-.64.21-1.6.58-.9-.01-7.91,1.85-3.34.89-5.01,1.33-6.46,1.85-2.44.87-4.58,1.64-7.07,3.26-1.01.66-3.55,2.43-6.07,5.48-1.68,2.04-3.56,4.31-4.4,7.83-.44,1.81-1.43,5.93.98,9.68,1.9,2.96,4.86,4.05,5.97,4.4l1.27,4.79,2.15-4.99c1.08-.13,4.01-.63,6.55-3.03,1.66-1.57,2.46-3.3,2.84-4.3,2.76,1.35,4.93,1.41,6.46,1.37,2.33-.07,4.17-1.17,5.77-.1.26.17,1.1.73,1.08,1.57-.02.88-.98,1.41-1.08,1.47-.94,1.6-1.97,2.6-2.74,3.23-1.05.85-1.78,1.11-3.62,2.35-1.11.74-1.98,1.41-2.54,1.86Z"/>
    </g>
  </g>
</svg>